<svg width="202" height="43" viewBox="0 0 202 43" fill="none" xmlns="http://www.w3.org/2000/svg">
<g filter="url(#filter0_d_106_31)">
<path d="M8.53125 11.5L17.9219 1.875H22.7812L11.875 12.7969L22.8438 26H17.9688L9.28125 15.2656L8.53125 16.0156V26H4.89062V1.875H8.53125V11.5ZM39.7608 20.1406H29.4327L26.7452 26H22.8233L34.7608 0.359375L46.2764 26H42.292L39.7608 20.1406ZM38.2764 16.7188L34.6983 8.51562L30.9483 16.7188H38.2764ZM56.9591 15.7188L64.4278 26H59.9747L53.0841 16.125H52.4278V26H48.7872V1.875H53.0528C56.2403 1.875 58.5424 2.47396 59.9591 3.67188C61.5216 5.00521 62.3028 6.76562 62.3028 8.95312C62.3028 10.6615 61.8132 12.1302 60.8341 13.3594C59.8549 14.5885 58.5632 15.375 56.9591 15.7188ZM52.4278 12.9531H53.5841C57.032 12.9531 58.7559 11.6354 58.7559 9C58.7559 6.53125 57.0788 5.29688 53.7247 5.29688H52.4278V12.9531ZM73.923 5.29688V26H70.2823V5.29688H64.7355V1.875H79.4542V5.29688H73.923Z" fill="#092635"/>
<path d="M99.5312 5.46875L96.5781 7.21875C96.026 6.26042 95.5 5.63542 95 5.34375C94.4792 5.01042 93.8073 4.84375 92.9844 4.84375C91.974 4.84375 91.1354 5.13021 90.4688 5.70312C89.8021 6.26562 89.4688 6.97396 89.4688 7.82812C89.4688 9.00521 90.3438 9.95312 92.0938 10.6719L94.5 11.6562C96.4583 12.4479 97.8906 13.4167 98.7969 14.5625C99.7031 15.6979 100.156 17.0938 100.156 18.75C100.156 20.9688 99.4167 22.8021 97.9375 24.25C96.4479 25.7083 94.599 26.4375 92.3906 26.4375C90.2969 26.4375 88.5677 25.8177 87.2031 24.5781C85.8594 23.3385 85.0208 21.5938 84.6875 19.3438L88.375 18.5312C88.5417 19.9479 88.8333 20.9271 89.25 21.4688C90 22.5104 91.0938 23.0312 92.5312 23.0312C93.6667 23.0312 94.6094 22.651 95.3594 21.8906C96.1094 21.1302 96.4844 20.1667 96.4844 19C96.4844 18.5312 96.4167 18.1042 96.2812 17.7188C96.1562 17.3229 95.9531 16.9635 95.6719 16.6406C95.401 16.3073 95.0469 16 94.6094 15.7188C94.1719 15.4271 93.651 15.151 93.0469 14.8906L90.7188 13.9219C87.4167 12.526 85.7656 10.4844 85.7656 7.79688C85.7656 5.98438 86.4583 4.46875 87.8438 3.25C89.2292 2.02083 90.9531 1.40625 93.0156 1.40625C95.7969 1.40625 97.9688 2.76042 99.5312 5.46875ZM107.542 14.0625V26H104.026V14.0625H102.526V10.7812H104.026V5.20312H107.542V10.7812H110.276V14.0625H107.542ZM111.647 18.2812C111.647 16.0833 112.433 14.2135 114.006 12.6719C115.579 11.1302 117.496 10.3594 119.756 10.3594C122.027 10.3594 123.954 11.1354 125.537 12.6875C127.1 14.2396 127.881 16.1458 127.881 18.4062C127.881 20.6875 127.094 22.599 125.522 24.1406C123.938 25.6719 121.996 26.4375 119.693 26.4375C117.412 26.4375 115.501 25.6562 113.959 24.0938C112.417 22.5521 111.647 20.6146 111.647 18.2812ZM115.24 18.3438C115.24 19.8646 115.647 21.0677 116.459 21.9531C117.292 22.849 118.391 23.2969 119.756 23.2969C121.131 23.2969 122.23 22.8542 123.053 21.9688C123.876 21.0833 124.287 19.901 124.287 18.4219C124.287 16.9427 123.876 15.7604 123.053 14.875C122.219 13.9792 121.121 13.5312 119.756 13.5312C118.412 13.5312 117.324 13.9792 116.49 14.875C115.657 15.7708 115.24 16.9271 115.24 18.3438ZM134.61 34.2812H131.095V10.7812H134.61V12.4375C135.996 11.0521 137.569 10.3594 139.329 10.3594C141.423 10.3594 143.147 11.1302 144.501 12.6719C145.876 14.2031 146.564 16.1354 146.564 18.4688C146.564 20.75 145.881 22.651 144.517 24.1719C143.163 25.6823 141.454 26.4375 139.392 26.4375C137.61 26.4375 136.017 25.724 134.61 24.2969V34.2812ZM142.97 18.4844C142.97 17.026 142.574 15.8385 141.782 14.9219C140.98 13.9948 139.97 13.5312 138.751 13.5312C137.459 13.5312 136.413 13.9792 135.61 14.875C134.808 15.7708 134.407 16.9479 134.407 18.4062C134.407 19.8333 134.808 21.0104 135.61 21.9375C136.402 22.8438 137.444 23.2969 138.735 23.2969C139.954 23.2969 140.959 22.8385 141.751 21.9219C142.564 21.0052 142.97 19.8594 142.97 18.4844ZM153.277 34.2812H149.762V10.7812H153.277V12.4375C154.663 11.0521 156.236 10.3594 157.996 10.3594C160.09 10.3594 161.814 11.1302 163.168 12.6719C164.543 14.2031 165.231 16.1354 165.231 18.4688C165.231 20.75 164.548 22.651 163.184 24.1719C161.83 25.6823 160.121 26.4375 158.059 26.4375C156.277 26.4375 154.684 25.724 153.277 24.2969V34.2812ZM161.637 18.4844C161.637 17.026 161.241 15.8385 160.449 14.9219C159.647 13.9948 158.637 13.5312 157.418 13.5312C156.126 13.5312 155.08 13.9792 154.277 14.875C153.475 15.7708 153.074 16.9479 153.074 18.4062C153.074 19.8333 153.475 21.0104 154.277 21.9375C155.069 22.8438 156.111 23.2969 157.402 23.2969C158.621 23.2969 159.626 22.8385 160.418 21.9219C161.231 21.0052 161.637 19.8594 161.637 18.4844ZM182.288 19.2188H171.382C171.476 20.4688 171.882 21.4635 172.601 22.2031C173.32 22.9323 174.241 23.2969 175.366 23.2969C176.241 23.2969 176.965 23.0885 177.538 22.6719C178.101 22.2552 178.741 21.4844 179.46 20.3594L182.429 22.0156C181.971 22.7969 181.486 23.4688 180.976 24.0312C180.465 24.5833 179.918 25.0417 179.335 25.4062C178.752 25.7604 178.122 26.0208 177.445 26.1875C176.767 26.3542 176.033 26.4375 175.241 26.4375C172.971 26.4375 171.148 25.7083 169.773 24.25C168.398 22.7812 167.71 20.8333 167.71 18.4062C167.71 16 168.377 14.0521 169.71 12.5625C171.054 11.0938 172.835 10.3594 175.054 10.3594C177.293 10.3594 179.064 11.0729 180.366 12.5C181.658 13.9167 182.304 15.8802 182.304 18.3906L182.288 19.2188ZM178.679 16.3438C178.189 14.4688 177.007 13.5312 175.132 13.5312C174.705 13.5312 174.304 13.599 173.929 13.7344C173.554 13.8594 173.21 14.0469 172.898 14.2969C172.596 14.5365 172.335 14.8281 172.116 15.1719C171.898 15.5156 171.731 15.9062 171.616 16.3438H178.679ZM185.627 10.7812H189.143V12.1406C189.789 11.4635 190.362 11 190.862 10.75C191.372 10.4896 191.976 10.3594 192.674 10.3594C193.601 10.3594 194.57 10.6615 195.58 11.2656L193.971 14.4844C193.304 14.0052 192.653 13.7656 192.018 13.7656C190.101 13.7656 189.143 15.2135 189.143 18.1094V26H185.627V10.7812Z" fill="#940021"/>
</g>
<defs>
<filter id="filter0_d_106_31" x="-2" y="0" width="208" height="42.2812" filterUnits="userSpaceOnUse" color-interpolation-filters="sRGB">
<feFlood flood-opacity="0" result="BackgroundImageFix"/>
<feColorMatrix in="SourceAlpha" type="matrix" values="0 0 0 0 0 0 0 0 0 0 0 0 0 0 0 0 0 0 127 0" result="hardAlpha"/>
<feOffset dy="4"/>
<feGaussianBlur stdDeviation="2"/>
<feComposite in2="hardAlpha" operator="out"/>
<feColorMatrix type="matrix" values="0 0 0 0 0 0 0 0 0 0 0 0 0 0 0 0 0 0 0.25 0"/>
<feBlend mode="normal" in2="BackgroundImageFix" result="effect1_dropShadow_106_31"/>
<feBlend mode="normal" in="SourceGraphic" in2="effect1_dropShadow_106_31" result="shape"/>
</filter>
</defs>
</svg>
